<?xml version="1.0" encoding="utf-8"?>
<!-- Generator: Adobe Illustrator 28.0.0, SVG Export Plug-In . SVG Version: 6.00 Build 0)  -->
<svg version="1.1" id="Layer_1" xmlns="http://www.w3.org/2000/svg" xmlns:xlink="http://www.w3.org/1999/xlink" x="0px" y="0px"
	 viewBox="0 0 1280 1280" style="enable-background:new 0 0 1280 1280;" xml:space="preserve">
<style type="text/css">
	.st0{fill:#C3073F;}
</style>
<g transform="translate(0.000000,1280.000000) scale(0.100000,-0.100000)">
	<path class="st0" d="M6000,12604c-753-59-1352-197-1985-459c-355-146-820-396-1117-601c-340-234-580-435-894-748
		c-343-343-534-576-789-961C614,8928,275,7924,199,6826c-15-224-6-828,15-1031c139-1286,609-2401,1432-3390c211-254,625-651,944-906
		c246-197,626-437,965-610c656-336,1317-540,2045-633c287-37,370-41,790-41s503,4,790,41c1193,152,2256,618,3210,1408
		c179,148,589,556,734,731c759,913,1241,1982,1405,3120c49,338,55,440,55,895s-6,557-55,895c-127,883-457,1752-947,2500
		c-141,216-203,301-358,495c-555,695-1251,1255-2059,1656c-713,353-1338,535-2161,630c-99,11-257,16-549,19
		C6230,12606,6025,12606,6000,12604z M6860,12195c783-64,1469-257,2160-605c395-200,752-433,1090-715c1089-906,1811-2178,2024-3565
		c54-354,61-445,61-905s-7-551-61-905c-79-513-246-1071-453-1515l-50-105l-5238,2l-5238,3l-42,85c-23,47-73,164-112,260
		c-203,511-321,989-388,1580c-14,125-18,241-18,595c0,471,6,559,61,915c241,1570,1121,2960,2465,3893c240,166,674,402,985,535
		c571,245,1171,393,1809,447C6126,12213,6645,12213,6860,12195z M3030,3490v-89l-142-3l-143-3l-3-82l-3-83h146h145v-90v-89l-142-3
		l-143-3l-3-167l-2-168h-100h-100v435v435h245h245V3490z M3491,3528l89-52v-166v-165l-84-47l-84-48h-161h-161v90v89l143,3l142,3v80
		v80l-142,3l-143,3v89v90h156h155L3491,3528z M7205,3528l85-52v-58v-58h-94h-95l-3,33l-3,32l-112,3l-113,3v74v75h125h125L7205,3528z
		 M8680,3140v-440h-100h-100v440v440h100h100V3140z M6810,3140v-430h-95h-95l-2,193l-3,192l-72,3l-73,3v64v64l73,3l72,3l5,123l5,123
		l80,45c44,24,86,44,93,44C6807,3570,6810,3477,6810,3140z M9140,3500v-70h-100h-100v70v70h100h100V3500z M5910,3090
		c0-255-3-380-10-380c-13,0-102,45-152,76l-38,24l-2,202l-3,203l-62,3l-63,3v37v38l153,86c83,48,158,87,165,87
		C5907,3470,5910,3388,5910,3090z M4140,3300v-69l-107-3l-108-3l-3-172l-2-173h110h110v-85v-85h-127l-128,1l-80,47l-80,48v234v234
		l80,48l80,47l128,1h127V3300z M4525,3322l80-48l3-231l2-232l-86-50l-86-51h-124h-124v85v84l108,3l107,3v170v170l-107,3l-108,3v69
		v70h128h127L4525,3322z M5070,3340c0-16,3-30,8-30c4,0,52,14,107,30s101,30,103,30c1,0,2-34,2-75v-74l-107-3l-108-3l-3-252l-2-253
		h-100h-100v330v330h100h100V3340z M5468,3324l92-37v-64v-63h-105h-105v106c0,81,3,105,13,101C5369,3365,5417,3345,5468,3324z
		 M6200,3295v-75h-115h-115v75v75h115h115V3295z M7750,3300v-69l-112-3l-113-3l-3-172l-2-173h115h115v-85v-85h-128h-129l-79,48
		l-79,47l-3,235l-2,235l82,47l83,48h128h127V3300z M8135,3320l85-51v-229v-228l-89-51l-88-51h-127h-127l3,83l3,82l110,5l110,5v170
		v170l-112,3l-113,3v69v70h130h129L8135,3320z M9140,3035v-335h-100h-100v335v335h100h100V3035z M9790,3300v-69l-107-3l-108-3
		l-3-172l-2-173h110h110v-85v-85h-127h-128l-80,48l-80,47v235v235l80,47l80,48h128h127V3300z M10175,3321l80-48l3-230l2-231l-87-51
		l-88-51h-122h-123v85v84l108,3l107,3v170v170l-107,3l-108,3v69v70h128l127-1L10175,3321z M7100,3165v-65h-115h-115v65v65h115h115
		V3165z M6388,2873l-3-67l-80-48l-80-48h-127h-128v80v79l108,3l107,3l3,33l3,32h100h100L6388,2873z M10680,2482
		c0-11-223-239-330-337c-432-398-863-693-1385-950c-831-409-1636-595-2575-595c-751,0-1366,111-2070,372
		c-602,224-1181,569-1706,1018c-163,140-504,470-504,489c0,8,1248,11,4285,11C8752,2490,10680,2486,10680,2482z"/>
	<path class="st0" d="M4077,11253c-4-3-7-354-7-780v-773l2328,2l2327,3v775v775l-2321,3C5128,11259,4080,11257,4077,11253z
		 M6462,11068c36-40,565-960,577-1004c13-48,2-84-33-105c-30-18-59-19-617-19c-578,0-587,0-613,21c-22,17-26,28-26,72
		c0,50,12,73,275,532c151,264,289,492,305,508C6374,11112,6423,11110,6462,11068z"/>
	<path class="st0" d="M6327,10784c-14-15-6-173,15-302l23-133l29,3l30,3l23,130c14,83,22,161,20,215l-2,85l-65,3
		C6364,10790,6331,10788,6327,10784z"/>
	<path class="st0" d="M6345,10225c-14-13-25-35-25-48c0-37,36-77,69-77c31,0,81,40,81,64c0,28-22,64-47,75
		C6387,10255,6372,10253,6345,10225z"/>
	<path class="st0" d="M4327,9074c-4-4-7-200-7-436v-428l243,2l242,3v80v80l-142,3l-143,3v84v84l143,3l142,3v85v85l-142,3l-143,3v79
		v79l143,3l142,3v90v90l-236,3C4440,9079,4331,9077,4327,9074z"/>
	<path class="st0" d="M4877,9074c-4-4-7-47-7-96v-88l248,2l247,3v90v90l-241,3C4992,9079,4881,9077,4877,9074z"/>
	<path class="st0" d="M3367,9014c-4-4-7-67-7-140v-133l-137-3l-138-3l-3-157l-3-158h146h145v-140v-141l153,3l152,3l3,137l3,137
		l142,3l142,3v155v155l-142,3l-142,3l-3,137l-3,137l-151,3C3442,9019,3371,9017,3367,9014z"/>
	<path class="st0" d="M9117,9014c-4-4-7-67-7-140v-133l-137-3l-138-3l-3-157l-3-158h141h140v-140v-141l158,3l157,3l3,137l3,137
		l142,3l142,3v155v155l-142,3l-142,3l-3,137l-3,137l-151,3C9192,9019,9121,9017,9117,9014z"/>
	<path class="st0" d="M6703,8882l-153-87v-37v-38h65h65l2-206l3-206l89-49c49-27,93-46,98-41c12,12,5,745-7,748
		C6860,8967,6786,8929,6703,8882z"/>
	<path class="st0" d="M5598,8827l-87-52l-1-235v-235l84-48l85-48l123,3l123,3v75v75l-107,3l-108,3v59v59l108,3l107,3v55v55l-107,3
		l-108,3v59v59l108,3l107,3v70v70l-120,2l-120,2L5598,8827z"/>
	<path class="st0" d="M6007,8873c-4-3-7-37-7-75v-68h110h110v-60v-59l-107-3l-108-3l-3-57l-3-58h125h124l79,46c43,26,81,52,85,58
		s8,48,8,93v82l-93,56l-93,55h-110C6063,8880,6010,8877,6007,8873z"/>
	<path class="st0" d="M6947,8864c-4-4-7-38-7-76v-69l113,3l112,3v70v70l-106,3C7001,8869,6951,8867,6947,8864z"/>
	<path class="st0" d="M7535,8858c-3-7-4-134-3-283l3-269l80-48l80-48l125,2l125,3v75v75l-107,3l-108,3l-2,247l-3,247l-93,3
		C7563,8870,7538,8867,7535,8858z"/>
	<path class="st0" d="M8247,8864c-4-4-7-117-7-250v-243l-112-3l-113-3l-3-77c-3-93-9-91,128-48c52,16,96,30,98,30c1,0,2-14,2-30v-31
		l98,3l97,3v325v325l-90,3C8295,8869,8251,8868,8247,8864z"/>
	<path class="st0" d="M4877,8724c-4-4-7-45-7-91v-84l123,3l122,3v85v85l-116,3C4936,8729,4881,8727,4877,8724z"/>
	<path class="st0" d="M7167,8434c-4-4-7-20-7-35v-28l-107-3l-108-3l-3-77l-3-78h128h128l80,48l80,48v65v64l-90,3
		C7215,8439,7171,8438,7167,8434z"/>
	<path class="st0" d="M6227,8414c-4-4-7-15-7-25c0-16-12-19-107-21l-108-3l-3-77l-3-78h128l128,1l80,47l80,48v54v55l-90,3
		C6275,8419,6231,8418,6227,8414z"/>
	<path class="st0" d="M4887,8374c-4-4-7-43-7-86v-78l243,2l242,3v80v80l-236,3C5000,8379,4891,8377,4887,8374z"/>
	<path class="st0" d="M837,7273c-4-3-7-199-7-435v-429l93,3l92,3l3,298c1,163,5,297,8,297s64-55,135-122c71-68,134-124,139-126
		c6-2,10,40,10,110v113l-82,81c-46,44-115,110-155,147l-71,67h-79C879,7280,840,7277,837,7273z"/>
	<path class="st0" d="M1537,7134l-157-146v-114c0-66,4-114,10-114c5,0,65,54,133,120c69,66,130,120,136,120c8,0,11-83,11-295v-296
		l98,3l97,3v430v430l-86,3l-85,3L1537,7134z"/>
	<path class="st0" d="M3197,7274c-4-4-7-202-7-441v-434l98,3l97,3l3,257l2,257l113,3l112,3v70v70l-112,3l-112,3l-3,102l-3,102l-90,3
		C3245,7279,3201,7278,3197,7274z"/>
	<path class="st0" d="M4377,7274c-4-4-7-202-7-441v-434l98,3l97,3v435v435l-90,3C4425,7279,4381,7278,4377,7274z"/>
	<path class="st0" d="M6027,7274c-4-4-7-202-7-441v-434l98,3l97,3l3,142l3,142l37,3l37,3v55v55l-37,3l-38,3l-2,232l-3,232l-90,3
		C6075,7279,6031,7278,6027,7274z"/>
	<path class="st0" d="M10278,7082l-157-87l-1-37v-38h70h70v-207v-208l91-48c54-29,95-45,100-40c13,13,7,746-6,749
		C10440,7168,10364,7130,10278,7082z"/>
	<path class="st0" d="M2090,7021l-75-48l-3-57l-3-57l98,3l98,3l3,32l3,32l112,3l112,3v65v65l-135,2l-135,2L2090,7021z"/>
	<path class="st0" d="M2497,7063c-4-3-7-35-7-70v-63h115h115v-60v-59l-112-3l-113-3l-3-57l-3-58h116h115v-60v-59l-107-3l-108-3
		l-3-83l-3-82l208,2l208,3l3,276c3,315,13,279-102,348l-70,41h-121C2558,7070,2500,7067,2497,7063z"/>
	<path class="st0" d="M3677,7063c-4-3-7-37-7-75v-68h115h115v-260v-260h88c55,0,92,4,100,12c9,9,12,85,12,278c0,305,11,270-106,339
		l-70,41h-120C3737,7070,3680,7067,3677,7063z"/>
	<path class="st0" d="M4913,7019l-83-50v-55v-55l98,3l97,3l3,32l3,32l112,3l112,3v65v65l-130,2l-130,3L4913,7019z"/>
	<path class="st0" d="M5327,7063c-4-3-7-35-7-70v-63h110h110v-60v-59l-107-3l-108-3l-3-57l-3-58h111h110v-60v-59l-107-3l-108-3
		l-3-83l-3-82l208,2l208,3l2,275c2,151,0,280-5,286c-4,5-41,31-83,57l-76,47h-120C5387,7070,5330,7067,5327,7063z"/>
	<path class="st0" d="M6560,6941l-185-128l-3-64l-3-64l184-137c101-76,190-138,197-138c17,0,160,90,160,101c0,9-75,59-292,199
		c-38,23-68,44-68,45c0,2,74,52,165,111s164,112,162,118c-5,14-107,86-121,85C6750,7069,6662,7011,6560,6941z"/>
	<path class="st0" d="M7160,7021l-75-48l-3-57l-3-57l98,3l98,3l3,32l3,32l112,3l112,3v65v65l-135,2l-135,2L7160,7021z"/>
	<path class="st0" d="M7567,7063c-4-3-7-35-7-70v-63h115h115v-60v-59l-112-3l-113-3l-3-57l-3-58h116h115v-60v-59l-107-3l-108-3
		l-3-83l-3-82l208,2l208,3l3,276c3,315,13,279-102,348l-70,41h-121C7628,7070,7570,7067,7567,7063z"/>
	<path class="st0" d="M8313,7018l-83-51v-54v-54l98,3l97,3l3,32l3,32l112,3l112,3v65v65l-130,2l-130,3L8313,7018z"/>
	<path class="st0" d="M8727,7063c-4-3-7-35-7-70v-63h110h110v-60v-59l-107-3l-108-3l-3-57l-3-58h111h110v-60v-59l-107-3l-108-3
		l-3-83l-3-82l208,2l208,3l3,265c1,146,0,274-2,285c-3,12-38,40-85,68l-79,47h-119C8787,7070,8730,7067,8727,7063z"/>
	<path class="st0" d="M9427,7064c-4-4-7-153-7-331v-324l98,3l97,3l3,252l2,252l108,3l107,3l3,68c3,64,2,67-20,67c-13,0-61-12-107-25
		c-47-14-86-25-87-25c-2,0-4,12-6,28c-3,27-3,27-93,30C9475,7069,9431,7068,9427,7064z"/>
	<path class="st0" d="M10517,7064c-4-4-7-38-7-76v-69l118,3l117,3v70v70l-111,3C10574,7069,10521,7067,10517,7064z"/>
	<path class="st0" d="M11153,7019l-83-50v-222c0-122,4-227,8-232c4-6,44-32,88-58l82-48l123,3l124,3v80v80l-112,3l-113,3v174v174
		l113,3l112,3v65v65l-130,2l-130,2L11153,7019z"/>
	<path class="st0" d="M11547,7063c-4-3-7-35-7-70v-63h115h115v-175v-174l-112-3l-113-3l-3-82l-3-83h128l128,1l80,48l80,48v233v233
		l-80,48l-80,48l-121,1C11608,7070,11550,7067,11547,7063z"/>
	<path class="st0" d="M9900,6961v-102l98,3l97,3l3,58l3,58l-76,34c-41,19-87,38-100,41l-25,6V6961z"/>
	<path class="st0" d="M2093,6758l-83-50v-102l1-101l87-52l88-53h116c87,0,118,3,127,14c7,9,11,41,9,83l-3,68l-112,3l-113,3v59v59
		l113,3l112,3l3,43c5,68-3,72-142,71l-121-1L2093,6758z"/>
	<path class="st0" d="M4917,6758l-88-53l3-99l3-99l85-53l85-54l125,3l125,2v80v80l-112,3l-113,3v59v59l113,3l112,3v55v55l-125,3
		l-125,2L4917,6758z"/>
	<path class="st0" d="M7163,6758l-83-50v-102l1-101l87-52l88-53h116c87,0,118,3,127,14c7,9,11,41,9,83l-3,68l-112,3l-113,3v59v59
		l113,3l112,3l3,43c5,68-3,72-142,71l-121-1L7163,6758z"/>
	<path class="st0" d="M8318,6758l-88-53v-97v-97l90-56l91-56l122,3l122,3v80v80l-112,3l-113,3v59v59l113,3l112,3v55v55l-125,3
		l-125,2L8318,6758z"/>
	<path class="st0" d="M10747,6634c-4-4-7-20-7-35v-28l-112-3l-113-3l-3-77l-3-78h131h132l79,48c85,50,92,61,87,133l-3,44l-90,3
		C10795,6639,10751,6638,10747,6634z"/>
	<path class="st0" d="M2467,5584c-4-4-7-205-7-446v-439l23,3l22,3v440c0,389-2,440-15,443C2481,5589,2471,5588,2467,5584z"/>
	<path class="st0" d="M2647,5584c-4-4-7-205-7-446v-439l43,3l42,3v440v440l-35,3C2670,5590,2651,5588,2647,5584z"/>
	<path class="st0" d="M2777,5584c-4-4-7-205-7-446v-439l23,3l22,3v440c0,389-2,440-15,443C2791,5589,2781,5588,2777,5584z"/>
	<path class="st0" d="M2957,5584c-4-4-7-205-7-446v-439l23,3l22,3v440c0,389-2,440-15,443C2971,5589,2961,5588,2957,5584z"/>
	<path class="st0" d="M3047,5584c-4-4-7-205-7-446v-439l48,3l47,3v440v440l-40,3C3072,5590,3051,5588,3047,5584z"/>
	<path class="st0" d="M3227,5584c-4-4-7-205-7-446v-439l23,3l22,3v440c0,389-2,440-15,443C3241,5589,3231,5588,3227,5584z"/>
	<path class="st0" d="M3457,5584c-4-4-7-205-7-446v-439l23,3l22,3v440c0,389-2,440-15,443C3471,5589,3461,5588,3457,5584z"/>
	<path class="st0" d="M3587,5584c-4-4-7-205-7-446v-439l93,3l92,3v440v440l-85,3C3633,5589,3591,5588,3587,5584z"/>
	<path class="st0" d="M3817,5584c-4-4-7-205-7-446v-439l23,3l22,3v440c0,389-2,440-15,443C3831,5589,3821,5588,3817,5584z"/>
	<path class="st0" d="M3947,5584c-4-4-7-205-7-446v-439l23,3l22,3v440c0,389-2,440-15,443C3961,5589,3951,5588,3947,5584z"/>
	<path class="st0" d="M4087,5584c-4-4-7-205-7-446v-439l88,3l87,3v440v440l-80,3C4130,5589,4091,5588,4087,5584z"/>
	<path class="st0" d="M4357,5584c-4-4-7-205-7-446v-439l23,3l22,3v440c0,389-2,440-15,443C4371,5589,4361,5588,4357,5584z"/>
	<path class="st0" d="M4447,5584c-4-4-7-205-7-446v-439l43,3l42,3v440v440l-35,3C4470,5590,4451,5588,4447,5584z"/>
	<path class="st0" d="M4577,5584c-4-4-7-205-7-446v-439l48,3l47,3v440v440l-40,3C4602,5590,4581,5588,4577,5584z"/>
	<path class="st0" d="M4757,5584c-4-4-7-205-7-446v-439l48,3l47,3v440v440l-40,3C4782,5590,4761,5588,4757,5584z"/>
	<path class="st0" d="M4937,5584c-4-4-7-205-7-446v-439l23,3l22,3v440c0,389-2,440-15,443C4951,5589,4941,5588,4937,5584z"/>
	<path class="st0" d="M5027,5584c-4-4-7-205-7-446v-439l68,3l67,3v440v440l-60,3C5061,5590,5031,5588,5027,5584z"/>
	<path class="st0" d="M5207,5584c-4-4-7-205-7-446v-439l48,3l47,3v440v440l-40,3C5232,5590,5211,5588,5207,5584z"/>
	<path class="st0" d="M5437,5584c-4-4-7-205-7-446v-439l23,3l22,3v440c0,389-2,440-15,443C5451,5589,5441,5588,5437,5584z"/>
	<path class="st0" d="M5567,5584c-4-4-7-205-7-446v-439l23,3l22,3v440c0,389-2,440-15,443C5581,5589,5571,5588,5567,5584z"/>
	<path class="st0" d="M5657,5584c-4-4-7-205-7-446v-439l48,3l47,3v440v440l-40,3C5682,5590,5661,5588,5657,5584z"/>
	<path class="st0" d="M5927,5584c-4-4-7-205-7-446v-439l23,3l22,3v440c0,389-2,440-15,443C5941,5589,5931,5588,5927,5584z"/>
	<path class="st0" d="M6067,5584c-4-4-7-205-7-446v-439l43,3l42,3v440v440l-35,3C6090,5590,6071,5588,6067,5584z"/>
	<path class="st0" d="M6337,5584c-4-4-7-205-7-446v-439l23,3l22,3v440c0,389-2,440-15,443C6351,5589,6341,5588,6337,5584z"/>
	<path class="st0" d="M6427,5584c-4-4-7-205-7-446v-439l43,3l42,3v440v440l-35,3C6450,5590,6431,5588,6427,5584z"/>
	<path class="st0" d="M6607,5584c-4-4-7-205-7-446v-439l23,3l22,3v440c0,389-2,440-15,443C6621,5589,6611,5588,6607,5584z"/>
	<path class="st0" d="M6697,5584c-4-4-7-205-7-446v-439l23,3l22,3v440c0,389-2,440-15,443C6711,5589,6701,5588,6697,5584z"/>
	<path class="st0" d="M6917,5584c-4-4-7-205-7-446v-439l23,3l22,3v440c0,389-2,440-15,443C6931,5589,6921,5588,6917,5584z"/>
	<path class="st0" d="M7057,5584c-4-4-7-205-7-446v-439l23,3l22,3v440c0,389-2,440-15,443C7071,5589,7061,5588,7057,5584z"/>
	<path class="st0" d="M7147,5584c-4-4-7-205-7-446v-439l43,3l42,3v440v440l-35,3C7170,5590,7151,5588,7147,5584z"/>
	<path class="st0" d="M7417,5584c-4-4-7-205-7-446v-439l43,3l42,3v440v440l-35,3C7440,5590,7421,5588,7417,5584z"/>
	<path class="st0" d="M7687,5584c-4-4-7-205-7-446v-439l23,3l22,3v440c0,389-2,440-15,443C7701,5589,7691,5588,7687,5584z"/>
	<path class="st0" d="M7817,5584c-4-4-7-205-7-446v-439l23,3l22,3v440c0,389-2,440-15,443C7831,5589,7821,5588,7817,5584z"/>
	<path class="st0" d="M7907,5584c-4-4-7-205-7-446v-439l23,3l22,3v440c0,389-2,440-15,443C7921,5589,7911,5588,7907,5584z"/>
	<path class="st0" d="M8047,5584c-4-4-7-205-7-446v-439l23,3l22,3v440c0,389-2,440-15,443C8061,5589,8051,5588,8047,5584z"/>
	<path class="st0" d="M8137,5584c-4-4-7-205-7-446v-439l43,3l42,3v440v440l-35,3C8160,5590,8141,5588,8137,5584z"/>
	<path class="st0" d="M8407,5584c-4-4-7-205-7-446v-439l23,3l22,3v440c0,389-2,440-15,443C8421,5589,8411,5588,8407,5584z"/>
	<path class="st0" d="M8537,5584c-4-4-7-205-7-446v-439l23,3l22,3v440c0,389-2,440-15,443C8551,5589,8541,5588,8537,5584z"/>
	<path class="st0" d="M8627,5584c-4-4-7-205-7-446v-439l48,3l47,3v440v440l-40,3C8652,5590,8631,5588,8627,5584z"/>
	<path class="st0" d="M8897,5584c-4-4-7-205-7-446v-439l23,3l22,3v440c0,389-2,440-15,443C8911,5589,8901,5588,8897,5584z"/>
	<path class="st0" d="M9037,5584c-4-4-7-205-7-446v-439l23,3l22,3v440c0,389-2,440-15,443C9051,5589,9041,5588,9037,5584z"/>
	<path class="st0" d="M9167,5584c-4-4-7-205-7-446v-439l93,3l92,3v440v440l-85,3C9213,5589,9171,5588,9167,5584z"/>
	<path class="st0" d="M9397,5584c-4-4-7-205-7-446v-439l23,3l22,3v440c0,389-2,440-15,443C9411,5589,9401,5588,9397,5584z"/>
	<path class="st0" d="M9527,5584c-4-4-7-205-7-446v-439l93,3l92,3v440v440l-85,3C9573,5589,9531,5588,9527,5584z"/>
	<path class="st0" d="M9757,5584c-4-4-7-205-7-446v-439l23,3l22,3v440c0,389-2,440-15,443C9771,5589,9761,5588,9757,5584z"/>
	<path class="st0" d="M9887,5584c-4-4-7-205-7-446v-439l23,3l22,3v440c0,389-2,440-15,443C9901,5589,9891,5588,9887,5584z"/>
	<path class="st0" d="M10067,5584c-4-4-7-205-7-446v-439l93,3l92,3v440v440l-85,3C10113,5589,10071,5588,10067,5584z"/>
	<path class="st0" d="M10297,5584c-4-4-7-205-7-446v-439l23,3l22,3v440c0,389-2,440-15,443C10311,5589,10301,5588,10297,5584z"/>
	<path class="st0" d="M4767,2044c-4-4-7-153-7-331v-324l53,3l52,3v325v325l-45,3C4795,2050,4771,2048,4767,2044z"/>
	<path class="st0" d="M4897,2044c-4-4-7-153-7-331v-324l53,3l52,3v325v325l-45,3C4925,2050,4901,2048,4897,2044z"/>
	<path class="st0" d="M5027,2044c-4-4-7-153-7-331v-324l38,3l37,3v325v325l-30,3C5048,2050,5031,2048,5027,2044z"/>
	<path class="st0" d="M5127,2044c-4-4-7-153-7-331v-324l23,3l22,3v325c0,285-2,325-15,328C5141,2049,5131,2048,5127,2044z"/>
	<path class="st0" d="M5267,2044c-4-4-7-153-7-331v-324l68,3l67,3v325v325l-60,3C5301,2050,5271,2048,5267,2044z"/>
	<path class="st0" d="M5427,2044c-4-4-7-153-7-331v-324l23,3l22,3v325c0,285-2,325-15,328C5441,2049,5431,2048,5427,2044z"/>
	<path class="st0" d="M5497,2044c-4-4-7-153-7-331c0-304,1-324,18-321c16,3,17,27,17,327C5525,2029,5522,2068,5497,2044z"/>
	<path class="st0" d="M5597,2044c-4-4-7-153-7-331c0-304,1-324,18-321c16,3,17,27,17,327C5625,2029,5622,2068,5597,2044z"/>
	<path class="st0" d="M5697,2044c-4-4-7-153-7-331v-324l68,3l67,3v325v325l-60,3C5731,2050,5701,2048,5697,2044z"/>
	<path class="st0" d="M5867,2044c-4-4-7-153-7-331c0-304,1-324,18-321c16,3,17,27,17,327C5895,2029,5892,2068,5867,2044z"/>
	<path class="st0" d="M5967,2044c-4-4-7-153-7-331v-324l68,3l67,3v325v325l-60,3C6001,2050,5971,2048,5967,2044z"/>
	<path class="st0" d="M6127,2043c-4-3-7-152-7-330v-324l23,3l22,3l3,314c2,223-1,318-9,327C6146,2051,6137,2053,6127,2043z"/>
	<path class="st0" d="M6227,2043c-4-3-7-152-7-330v-324l23,3l22,3l3,314c2,223-1,318-9,327C6246,2051,6237,2053,6227,2043z"/>
	<path class="st0" d="M6297,2043c-4-3-7-152-7-330v-324l38,3l37,3l3,314c2,223-1,318-9,327C6347,2051,6308,2055,6297,2043z"/>
	<path class="st0" d="M6497,2044c-4-4-7-153-7-331c0-304,1-324,18-321c16,3,17,27,17,327C6525,2029,6522,2068,6497,2044z"/>
	<path class="st0" d="M6597,2044c-4-4-7-153-7-331c0-304,1-324,18-321c16,3,17,27,17,327C6625,2029,6622,2068,6597,2044z"/>
	<path class="st0" d="M6727,2044c-4-4-7-153-7-331v-324l68,3l67,3v325v325l-60,3C6761,2050,6731,2048,6727,2044z"/>
	<path class="st0" d="M6897,2044c-4-4-7-153-7-331c0-304,1-324,18-321c16,3,17,27,17,327C6925,2029,6922,2068,6897,2044z"/>
	<path class="st0" d="M6957,2044c-4-4-7-153-7-331v-324l38,3l37,3v325v325l-30,3C6978,2050,6961,2048,6957,2044z"/>
	<path class="st0" d="M7097,2044c-4-4-7-153-7-331c0-304,1-324,18-321c16,3,17,27,17,327C7125,2029,7122,2068,7097,2044z"/>
	<path class="st0" d="M7157,2044c-4-4-7-153-7-331v-324l23,3l22,3v325c0,285-2,325-15,328C7171,2049,7161,2048,7157,2044z"/>
	<path class="st0" d="M7327,2044c-4-4-7-153-7-331c0-304,1-324,18-321c16,3,17,27,17,327C7355,2029,7352,2068,7327,2044z"/>
	<path class="st0" d="M7497,2044c-4-4-7-153-7-331v-324l33,3l32,3v325v325l-25,3C7516,2050,7501,2048,7497,2044z"/>
	<path class="st0" d="M7597,2044c-4-4-7-153-7-331c0-304,1-324,18-321c16,3,17,27,17,327C7625,2029,7622,2068,7597,2044z"/>
	<path class="st0" d="M7697,2044c-4-4-7-153-7-331c0-304,1-324,18-321c16,3,17,27,17,327C7725,2029,7722,2068,7697,2044z"/>
	<path class="st0" d="M7827,2044c-4-4-7-153-7-331v-324l68,3l67,3v325v325l-60,3C7861,2050,7831,2048,7827,2044z"/>
	<path class="st0" d="M7997,2044c-4-4-7-153-7-331c0-304,1-324,18-321c16,3,17,27,17,327C8025,2029,8022,2068,7997,2044z"/>
</g>
<image style="display:none;overflow:visible;" width="1280" height="1280" xlink:href="Portfolio logo.png"  transform="matrix(0.24 0 0 0.24 134.4 376.4)">
</image>
</svg>
