<?xml version="1.0" standalone="no"?>
<!DOCTYPE svg PUBLIC "-//W3C//DTD SVG 20010904//EN"
 "http://www.w3.org/TR/2001/REC-SVG-20010904/DTD/svg10.dtd">
<svg version="1.0" xmlns="http://www.w3.org/2000/svg"
 width="1280.000000pt" height="1280.000000pt" viewBox="0 0 1280.000000 1280.000000"
 preserveAspectRatio="xMidYMid meet">

<g transform="translate(0.000000,1280.000000) scale(0.100000,-0.100000)"
fill="currentColor" stroke="none">
<path d="M6000 12604 c-753 -59 -1352 -197 -1985 -459 -355 -146 -820 -396
-1117 -601 -340 -234 -580 -435 -894 -748 -343 -343 -534 -576 -789 -961 -601
-907 -940 -1911 -1016 -3009 -15 -224 -6 -828 15 -1031 139 -1286 609 -2401
1432 -3390 211 -254 625 -651 944 -906 246 -197 626 -437 965 -610 656 -336
1317 -540 2045 -633 287 -37 370 -41 790 -41 420 0 503 4 790 41 1193 152
2256 618 3210 1408 179 148 589 556 734 731 759 913 1241 1982 1405 3120 49
338 55 440 55 895 0 455 -6 557 -55 895 -127 883 -457 1752 -947 2500 -141
216 -203 301 -358 495 -555 695 -1251 1255 -2059 1656 -713 353 -1338 535
-2161 630 -99 11 -257 16 -549 19 -225 1 -430 1 -455 -1z m860 -409 c783 -64
1469 -257 2160 -605 395 -200 752 -433 1090 -715 1089 -906 1811 -2178 2024
-3565 54 -354 61 -445 61 -905 0 -460 -7 -551 -61 -905 -79 -513 -246 -1071
-453 -1515 l-50 -105 -5238 2 -5238 3 -42 85 c-23 47 -73 164 -112 260 -203
511 -321 989 -388 1580 -14 125 -18 241 -18 595 0 471 6 559 61 915 241 1570
1121 2960 2465 3893 240 166 674 402 985 535 571 245 1171 393 1809 447 211
18 730 18 945 0z m-3830 -8705 l0 -89 -142 -3 -143 -3 -3 -82 -3 -83 146 0
145 0 0 -90 0 -89 -142 -3 -143 -3 -3 -167 -2 -168 -100 0 -100 0 0 435 0 435
245 0 245 0 0 -90z m461 38 l89 -52 0 -166 0 -165 -84 -47 -84 -48 -161 0
-161 0 0 90 0 89 143 3 142 3 0 80 0 80 -142 3 -143 3 0 89 0 90 156 0 155 0
90 -52z m3714 0 l85 -52 0 -58 0 -58 -94 0 -95 0 -3 33 -3 32 -112 3 -113 3 0
74 0 75 125 0 125 0 85 -52z m1475 -388 l0 -440 -100 0 -100 0 0 440 0 440
100 0 100 0 0 -440z m-1870 0 l0 -430 -95 0 -95 0 -2 193 -3 192 -72 3 -73 3
0 64 0 64 73 3 72 3 5 123 5 123 80 45 c44 24 86 44 93 44 9 0 12 -93 12 -430z
m2330 360 l0 -70 -100 0 -100 0 0 70 0 70 100 0 100 0 0 -70z m-3230 -410 c0
-255 -3 -380 -10 -380 -13 0 -102 45 -152 76 l-38 24 -2 202 -3 203 -62 3 -63
3 0 37 0 38 153 86 c83 48 158 87 165 87 9 1 12 -81 12 -379z m-1770 210 l0
-69 -107 -3 -108 -3 -3 -172 -2 -173 110 0 110 0 0 -85 0 -85 -127 0 -128 1
-80 47 -80 48 0 234 0 234 80 48 80 47 128 1 127 0 0 -70z m385 22 l80 -48 3
-231 2 -232 -86 -50 -86 -51 -124 0 -124 0 0 85 0 84 108 3 107 3 0 170 0 170
-107 3 -108 3 0 69 0 70 128 0 127 0 80 -48z m545 18 c0 -16 3 -30 8 -30 4 0
52 14 107 30 55 16 101 30 103 30 1 0 2 -34 2 -75 l0 -74 -107 -3 -108 -3 -3
-252 -2 -253 -100 0 -100 0 0 330 0 330 100 0 100 0 0 -30z m398 -16 l92 -37
0 -64 0 -63 -105 0 -105 0 0 106 c0 81 3 105 13 101 6 -2 54 -22 105 -43z
m732 -29 l0 -75 -115 0 -115 0 0 75 0 75 115 0 115 0 0 -75z m1550 5 l0 -69
-112 -3 -113 -3 -3 -172 -2 -173 115 0 115 0 0 -85 0 -85 -128 0 -129 0 -79
48 -79 47 -3 235 -2 235 82 47 83 48 128 0 127 0 0 -70z m385 20 l85 -51 0
-229 0 -228 -89 -51 -88 -51 -127 0 -127 0 3 83 3 82 110 5 110 5 0 170 0 170
-112 3 -113 3 0 69 0 70 130 0 129 0 86 -50z m1005 -285 l0 -335 -100 0 -100
0 0 335 0 335 100 0 100 0 0 -335z m650 265 l0 -69 -107 -3 -108 -3 -3 -172
-2 -173 110 0 110 0 0 -85 0 -85 -127 0 -128 0 -80 48 -80 47 0 235 0 235 80
47 80 48 128 0 127 0 0 -70z m385 21 l80 -48 3 -230 2 -231 -87 -51 -88 -51
-122 0 -123 0 0 85 0 84 108 3 107 3 0 170 0 170 -107 3 -108 3 0 69 0 70 128
0 127 -1 80 -48z m-3075 -156 l0 -65 -115 0 -115 0 0 65 0 65 115 0 115 0 0
-65z m-712 -292 l-3 -67 -80 -48 -80 -48 -127 0 -128 0 0 80 0 79 108 3 107 3
3 33 3 32 100 0 100 0 -3 -67z m4292 -391 c0 -11 -223 -239 -330 -337 -432
-398 -863 -693 -1385 -950 -831 -409 -1636 -595 -2575 -595 -751 0 -1366 111
-2070 372 -602 224 -1181 569 -1706 1018 -163 140 -504 470 -504 489 0 8 1248
11 4285 11 2357 0 4285 -4 4285 -8z"/>
<path d="M4077 11253 c-4 -3 -7 -354 -7 -780 l0 -773 2328 2 2327 3 0 775 0
775 -2321 3 c-1276 1 -2324 -1 -2327 -5z m2385 -185 c36 -40 565 -960 577
-1004 13 -48 2 -84 -33 -105 -30 -18 -59 -19 -617 -19 -578 0 -587 0 -613 21
-22 17 -26 28 -26 72 0 50 12 73 275 532 151 264 289 492 305 508 44 39 93 37
132 -5z"/>
<path d="M6327 10784 c-14 -15 -6 -173 15 -302 l23 -133 29 3 30 3 23 130 c14
83 22 161 20 215 l-2 85 -65 3 c-36 2 -69 0 -73 -4z"/>
<path d="M6345 10225 c-14 -13 -25 -35 -25 -48 0 -37 36 -77 69 -77 31 0 81
40 81 64 0 28 -22 64 -47 75 -36 16 -51 14 -78 -14z"/>
<path d="M4327 9074 c-4 -4 -7 -200 -7 -436 l0 -428 243 2 242 3 0 80 0 80
-142 3 -143 3 0 84 0 84 143 3 142 3 0 85 0 85 -142 3 -143 3 0 79 0 79 143 3
142 3 0 90 0 90 -236 3 c-129 1 -238 -1 -242 -4z"/>
<path d="M4877 9074 c-4 -4 -7 -47 -7 -96 l0 -88 248 2 247 3 0 90 0 90 -241
3 c-132 1 -243 -1 -247 -4z"/>
<path d="M3367 9014 c-4 -4 -7 -67 -7 -140 l0 -133 -137 -3 -138 -3 -3 -157
-3 -158 146 0 145 0 0 -140 0 -141 153 3 152 3 3 137 3 137 142 3 142 3 0 155
0 155 -142 3 -142 3 -3 137 -3 137 -151 3 c-82 1 -153 -1 -157 -4z"/>
<path d="M9117 9014 c-4 -4 -7 -67 -7 -140 l0 -133 -137 -3 -138 -3 -3 -157
-3 -158 141 0 140 0 0 -140 0 -141 158 3 157 3 3 137 3 137 142 3 142 3 0 155
0 155 -142 3 -142 3 -3 137 -3 137 -151 3 c-82 1 -153 -1 -157 -4z"/>
<path d="M6703 8882 l-153 -87 0 -37 0 -38 65 0 65 0 2 -206 3 -206 89 -49
c49 -27 93 -46 98 -41 12 12 5 745 -7 748 -5 1 -79 -37 -162 -84z"/>
<path d="M5598 8827 l-87 -52 -1 -235 0 -235 84 -48 85 -48 123 3 123 3 0 75
0 75 -107 3 -108 3 0 59 0 59 108 3 107 3 0 55 0 55 -107 3 -108 3 0 59 0 59
108 3 107 3 0 70 0 70 -120 2 -120 2 -87 -52z"/>
<path d="M6007 8873 c-4 -3 -7 -37 -7 -75 l0 -68 110 0 110 0 0 -60 0 -59
-107 -3 -108 -3 -3 -57 -3 -58 125 0 124 0 79 46 c43 26 81 52 85 58 4 6 8 48
8 93 l0 82 -93 56 -93 55 -110 0 c-61 0 -114 -3 -117 -7z"/>
<path d="M6947 8864 c-4 -4 -7 -38 -7 -76 l0 -69 113 3 112 3 0 70 0 70 -106
3 c-58 1 -108 -1 -112 -4z"/>
<path d="M7535 8858 c-3 -7 -4 -134 -3 -283 l3 -269 80 -48 80 -48 125 2 125
3 0 75 0 75 -107 3 -108 3 -2 247 -3 247 -93 3 c-69 2 -94 -1 -97 -10z"/>
<path d="M8247 8864 c-4 -4 -7 -117 -7 -250 l0 -243 -112 -3 -113 -3 -3 -77
c-3 -93 -9 -91 128 -48 52 16 96 30 98 30 1 0 2 -14 2 -30 l0 -31 98 3 97 3 0
325 0 325 -90 3 c-50 1 -94 0 -98 -4z"/>
<path d="M4877 8724 c-4 -4 -7 -45 -7 -91 l0 -84 123 3 122 3 0 85 0 85 -116
3 c-63 1 -118 -1 -122 -4z"/>
<path d="M7167 8434 c-4 -4 -7 -20 -7 -35 l0 -28 -107 -3 -108 -3 -3 -77 -3
-78 128 0 128 0 80 48 80 48 0 65 0 64 -90 3 c-50 1 -94 0 -98 -4z"/>
<path d="M6227 8414 c-4 -4 -7 -15 -7 -25 0 -16 -12 -19 -107 -21 l-108 -3 -3
-77 -3 -78 128 0 128 1 80 47 80 48 0 54 0 55 -90 3 c-50 1 -94 0 -98 -4z"/>
<path d="M4887 8374 c-4 -4 -7 -43 -7 -86 l0 -78 243 2 242 3 0 80 0 80 -236
3 c-129 1 -238 -1 -242 -4z"/>
<path d="M837 7273 c-4 -3 -7 -199 -7 -435 l0 -429 93 3 92 3 3 298 c1 163 5
297 8 297 3 0 64 -55 135 -122 71 -68 134 -124 139 -126 6 -2 10 40 10 110 l0
113 -82 81 c-46 44 -115 110 -155 147 l-71 67 -79 0 c-44 0 -83 -3 -86 -7z"/>
<path d="M1537 7134 l-157 -146 0 -114 c0 -66 4 -114 10 -114 5 0 65 54 133
120 69 66 130 120 136 120 8 0 11 -83 11 -295 l0 -296 98 3 97 3 0 430 0 430
-86 3 -85 3 -157 -147z"/>
<path d="M3197 7274 c-4 -4 -7 -202 -7 -441 l0 -434 98 3 97 3 3 257 2 257
113 3 112 3 0 70 0 70 -112 3 -112 3 -3 102 -3 102 -90 3 c-50 1 -94 0 -98 -4z"/>
<path d="M4377 7274 c-4 -4 -7 -202 -7 -441 l0 -434 98 3 97 3 0 435 0 435
-90 3 c-50 1 -94 0 -98 -4z"/>
<path d="M6027 7274 c-4 -4 -7 -202 -7 -441 l0 -434 98 3 97 3 3 142 3 142 37
3 37 3 0 55 0 55 -37 3 -38 3 -2 232 -3 232 -90 3 c-50 1 -94 0 -98 -4z"/>
<path d="M10278 7082 l-157 -87 -1 -37 0 -38 70 0 70 0 0 -207 0 -208 91 -48
c54 -29 95 -45 100 -40 13 13 7 746 -6 749 -5 2 -81 -36 -167 -84z"/>
<path d="M2090 7021 l-75 -48 -3 -57 -3 -57 98 3 98 3 3 32 3 32 112 3 112 3
0 65 0 65 -135 2 -135 2 -75 -48z"/>
<path d="M2497 7063 c-4 -3 -7 -35 -7 -70 l0 -63 115 0 115 0 0 -60 0 -59
-112 -3 -113 -3 -3 -57 -3 -58 116 0 115 0 0 -60 0 -59 -107 -3 -108 -3 -3
-83 -3 -82 208 2 208 3 3 276 c3 315 13 279 -102 348 l-70 41 -121 0 c-67 0
-125 -3 -128 -7z"/>
<path d="M3677 7063 c-4 -3 -7 -37 -7 -75 l0 -68 115 0 115 0 0 -260 0 -260
88 0 c55 0 92 4 100 12 9 9 12 85 12 278 0 305 11 270 -106 339 l-70 41 -120
0 c-67 0 -124 -3 -127 -7z"/>
<path d="M4913 7019 l-83 -50 0 -55 0 -55 98 3 97 3 3 32 3 32 112 3 112 3 0
65 0 65 -130 2 -130 3 -82 -51z"/>
<path d="M5327 7063 c-4 -3 -7 -35 -7 -70 l0 -63 110 0 110 0 0 -60 0 -59
-107 -3 -108 -3 -3 -57 -3 -58 111 0 110 0 0 -60 0 -59 -107 -3 -108 -3 -3
-83 -3 -82 208 2 208 3 2 275 c2 151 0 280 -5 286 -4 5 -41 31 -83 57 l-76 47
-120 0 c-66 0 -123 -3 -126 -7z"/>
<path d="M6560 6941 l-185 -128 -3 -64 -3 -64 184 -137 c101 -76 190 -138 197
-138 17 0 160 90 160 101 0 9 -75 59 -292 199 -38 23 -68 44 -68 45 0 2 74 52
165 111 91 59 164 112 162 118 -5 14 -107 86 -121 85 -6 0 -94 -58 -196 -128z"/>
<path d="M7160 7021 l-75 -48 -3 -57 -3 -57 98 3 98 3 3 32 3 32 112 3 112 3
0 65 0 65 -135 2 -135 2 -75 -48z"/>
<path d="M7567 7063 c-4 -3 -7 -35 -7 -70 l0 -63 115 0 115 0 0 -60 0 -59
-112 -3 -113 -3 -3 -57 -3 -58 116 0 115 0 0 -60 0 -59 -107 -3 -108 -3 -3
-83 -3 -82 208 2 208 3 3 276 c3 315 13 279 -102 348 l-70 41 -121 0 c-67 0
-125 -3 -128 -7z"/>
<path d="M8313 7018 l-83 -51 0 -54 0 -54 98 3 97 3 3 32 3 32 112 3 112 3 0
65 0 65 -130 2 -130 3 -82 -52z"/>
<path d="M8727 7063 c-4 -3 -7 -35 -7 -70 l0 -63 110 0 110 0 0 -60 0 -59
-107 -3 -108 -3 -3 -57 -3 -58 111 0 110 0 0 -60 0 -59 -107 -3 -108 -3 -3
-83 -3 -82 208 2 208 3 3 265 c1 146 0 274 -2 285 -3 12 -38 40 -85 68 l-79
47 -119 0 c-66 0 -123 -3 -126 -7z"/>
<path d="M9427 7064 c-4 -4 -7 -153 -7 -331 l0 -324 98 3 97 3 3 252 2 252
108 3 107 3 3 68 c3 64 2 67 -20 67 -13 0 -61 -12 -107 -25 -47 -14 -86 -25
-87 -25 -2 0 -4 12 -6 28 -3 27 -3 27 -93 30 -50 1 -94 0 -98 -4z"/>
<path d="M10517 7064 c-4 -4 -7 -38 -7 -76 l0 -69 118 3 117 3 0 70 0 70 -111
3 c-60 1 -113 -1 -117 -4z"/>
<path d="M11153 7019 l-83 -50 0 -222 c0 -122 4 -227 8 -232 4 -6 44 -32 88
-58 l82 -48 123 3 124 3 0 80 0 80 -112 3 -113 3 0 174 0 174 113 3 112 3 0
65 0 65 -130 2 -130 2 -82 -50z"/>
<path d="M11547 7063 c-4 -3 -7 -35 -7 -70 l0 -63 115 0 115 0 0 -175 0 -174
-112 -3 -113 -3 -3 -82 -3 -83 128 0 128 1 80 48 80 48 0 233 0 233 -80 48
-80 48 -121 1 c-66 0 -124 -3 -127 -7z"/>
<path d="M9900 6961 l0 -102 98 3 97 3 3 58 3 58 -76 34 c-41 19 -87 38 -100
41 l-25 6 0 -101z"/>
<path d="M2093 6758 l-83 -50 0 -102 1 -101 87 -52 88 -53 116 0 c87 0 118 3
127 14 7 9 11 41 9 83 l-3 68 -112 3 -113 3 0 59 0 59 113 3 112 3 3 43 c5 68
-3 72 -142 71 l-121 -1 -82 -50z"/>
<path d="M4917 6758 l-88 -53 3 -99 3 -99 85 -53 85 -54 125 3 125 2 0 80 0
80 -112 3 -113 3 0 59 0 59 113 3 112 3 0 55 0 55 -125 3 -125 2 -88 -52z"/>
<path d="M7163 6758 l-83 -50 0 -102 1 -101 87 -52 88 -53 116 0 c87 0 118 3
127 14 7 9 11 41 9 83 l-3 68 -112 3 -113 3 0 59 0 59 113 3 112 3 3 43 c5 68
-3 72 -142 71 l-121 -1 -82 -50z"/>
<path d="M8318 6758 l-88 -53 0 -97 0 -97 90 -56 91 -56 122 3 122 3 0 80 0
80 -112 3 -113 3 0 59 0 59 113 3 112 3 0 55 0 55 -125 3 -125 2 -87 -52z"/>
<path d="M10747 6634 c-4 -4 -7 -20 -7 -35 l0 -28 -112 -3 -113 -3 -3 -77 -3
-78 131 0 132 0 79 48 c85 50 92 61 87 133 l-3 44 -90 3 c-50 1 -94 0 -98 -4z"/>
<path d="M2467 5584 c-4 -4 -7 -205 -7 -446 l0 -439 23 3 22 3 0 440 c0 389
-2 440 -15 443 -9 1 -19 0 -23 -4z"/>
<path d="M2647 5584 c-4 -4 -7 -205 -7 -446 l0 -439 43 3 42 3 0 440 0 440
-35 3 c-20 2 -39 0 -43 -4z"/>
<path d="M2777 5584 c-4 -4 -7 -205 -7 -446 l0 -439 23 3 22 3 0 440 c0 389
-2 440 -15 443 -9 1 -19 0 -23 -4z"/>
<path d="M2957 5584 c-4 -4 -7 -205 -7 -446 l0 -439 23 3 22 3 0 440 c0 389
-2 440 -15 443 -9 1 -19 0 -23 -4z"/>
<path d="M3047 5584 c-4 -4 -7 -205 -7 -446 l0 -439 48 3 47 3 0 440 0 440
-40 3 c-23 2 -44 0 -48 -4z"/>
<path d="M3227 5584 c-4 -4 -7 -205 -7 -446 l0 -439 23 3 22 3 0 440 c0 389
-2 440 -15 443 -9 1 -19 0 -23 -4z"/>
<path d="M3457 5584 c-4 -4 -7 -205 -7 -446 l0 -439 23 3 22 3 0 440 c0 389
-2 440 -15 443 -9 1 -19 0 -23 -4z"/>
<path d="M3587 5584 c-4 -4 -7 -205 -7 -446 l0 -439 93 3 92 3 0 440 0 440
-85 3 c-47 1 -89 0 -93 -4z"/>
<path d="M3817 5584 c-4 -4 -7 -205 -7 -446 l0 -439 23 3 22 3 0 440 c0 389
-2 440 -15 443 -9 1 -19 0 -23 -4z"/>
<path d="M3947 5584 c-4 -4 -7 -205 -7 -446 l0 -439 23 3 22 3 0 440 c0 389
-2 440 -15 443 -9 1 -19 0 -23 -4z"/>
<path d="M4087 5584 c-4 -4 -7 -205 -7 -446 l0 -439 88 3 87 3 0 440 0 440
-80 3 c-45 1 -84 0 -88 -4z"/>
<path d="M4357 5584 c-4 -4 -7 -205 -7 -446 l0 -439 23 3 22 3 0 440 c0 389
-2 440 -15 443 -9 1 -19 0 -23 -4z"/>
<path d="M4447 5584 c-4 -4 -7 -205 -7 -446 l0 -439 43 3 42 3 0 440 0 440
-35 3 c-20 2 -39 0 -43 -4z"/>
<path d="M4577 5584 c-4 -4 -7 -205 -7 -446 l0 -439 48 3 47 3 0 440 0 440
-40 3 c-23 2 -44 0 -48 -4z"/>
<path d="M4757 5584 c-4 -4 -7 -205 -7 -446 l0 -439 48 3 47 3 0 440 0 440
-40 3 c-23 2 -44 0 -48 -4z"/>
<path d="M4937 5584 c-4 -4 -7 -205 -7 -446 l0 -439 23 3 22 3 0 440 c0 389
-2 440 -15 443 -9 1 -19 0 -23 -4z"/>
<path d="M5027 5584 c-4 -4 -7 -205 -7 -446 l0 -439 68 3 67 3 0 440 0 440
-60 3 c-34 2 -64 0 -68 -4z"/>
<path d="M5207 5584 c-4 -4 -7 -205 -7 -446 l0 -439 48 3 47 3 0 440 0 440
-40 3 c-23 2 -44 0 -48 -4z"/>
<path d="M5437 5584 c-4 -4 -7 -205 -7 -446 l0 -439 23 3 22 3 0 440 c0 389
-2 440 -15 443 -9 1 -19 0 -23 -4z"/>
<path d="M5567 5584 c-4 -4 -7 -205 -7 -446 l0 -439 23 3 22 3 0 440 c0 389
-2 440 -15 443 -9 1 -19 0 -23 -4z"/>
<path d="M5657 5584 c-4 -4 -7 -205 -7 -446 l0 -439 48 3 47 3 0 440 0 440
-40 3 c-23 2 -44 0 -48 -4z"/>
<path d="M5927 5584 c-4 -4 -7 -205 -7 -446 l0 -439 23 3 22 3 0 440 c0 389
-2 440 -15 443 -9 1 -19 0 -23 -4z"/>
<path d="M6067 5584 c-4 -4 -7 -205 -7 -446 l0 -439 43 3 42 3 0 440 0 440
-35 3 c-20 2 -39 0 -43 -4z"/>
<path d="M6337 5584 c-4 -4 -7 -205 -7 -446 l0 -439 23 3 22 3 0 440 c0 389
-2 440 -15 443 -9 1 -19 0 -23 -4z"/>
<path d="M6427 5584 c-4 -4 -7 -205 -7 -446 l0 -439 43 3 42 3 0 440 0 440
-35 3 c-20 2 -39 0 -43 -4z"/>
<path d="M6607 5584 c-4 -4 -7 -205 -7 -446 l0 -439 23 3 22 3 0 440 c0 389
-2 440 -15 443 -9 1 -19 0 -23 -4z"/>
<path d="M6697 5584 c-4 -4 -7 -205 -7 -446 l0 -439 23 3 22 3 0 440 c0 389
-2 440 -15 443 -9 1 -19 0 -23 -4z"/>
<path d="M6917 5584 c-4 -4 -7 -205 -7 -446 l0 -439 23 3 22 3 0 440 c0 389
-2 440 -15 443 -9 1 -19 0 -23 -4z"/>
<path d="M7057 5584 c-4 -4 -7 -205 -7 -446 l0 -439 23 3 22 3 0 440 c0 389
-2 440 -15 443 -9 1 -19 0 -23 -4z"/>
<path d="M7147 5584 c-4 -4 -7 -205 -7 -446 l0 -439 43 3 42 3 0 440 0 440
-35 3 c-20 2 -39 0 -43 -4z"/>
<path d="M7417 5584 c-4 -4 -7 -205 -7 -446 l0 -439 43 3 42 3 0 440 0 440
-35 3 c-20 2 -39 0 -43 -4z"/>
<path d="M7687 5584 c-4 -4 -7 -205 -7 -446 l0 -439 23 3 22 3 0 440 c0 389
-2 440 -15 443 -9 1 -19 0 -23 -4z"/>
<path d="M7817 5584 c-4 -4 -7 -205 -7 -446 l0 -439 23 3 22 3 0 440 c0 389
-2 440 -15 443 -9 1 -19 0 -23 -4z"/>
<path d="M7907 5584 c-4 -4 -7 -205 -7 -446 l0 -439 23 3 22 3 0 440 c0 389
-2 440 -15 443 -9 1 -19 0 -23 -4z"/>
<path d="M8047 5584 c-4 -4 -7 -205 -7 -446 l0 -439 23 3 22 3 0 440 c0 389
-2 440 -15 443 -9 1 -19 0 -23 -4z"/>
<path d="M8137 5584 c-4 -4 -7 -205 -7 -446 l0 -439 43 3 42 3 0 440 0 440
-35 3 c-20 2 -39 0 -43 -4z"/>
<path d="M8407 5584 c-4 -4 -7 -205 -7 -446 l0 -439 23 3 22 3 0 440 c0 389
-2 440 -15 443 -9 1 -19 0 -23 -4z"/>
<path d="M8537 5584 c-4 -4 -7 -205 -7 -446 l0 -439 23 3 22 3 0 440 c0 389
-2 440 -15 443 -9 1 -19 0 -23 -4z"/>
<path d="M8627 5584 c-4 -4 -7 -205 -7 -446 l0 -439 48 3 47 3 0 440 0 440
-40 3 c-23 2 -44 0 -48 -4z"/>
<path d="M8897 5584 c-4 -4 -7 -205 -7 -446 l0 -439 23 3 22 3 0 440 c0 389
-2 440 -15 443 -9 1 -19 0 -23 -4z"/>
<path d="M9037 5584 c-4 -4 -7 -205 -7 -446 l0 -439 23 3 22 3 0 440 c0 389
-2 440 -15 443 -9 1 -19 0 -23 -4z"/>
<path d="M9167 5584 c-4 -4 -7 -205 -7 -446 l0 -439 93 3 92 3 0 440 0 440
-85 3 c-47 1 -89 0 -93 -4z"/>
<path d="M9397 5584 c-4 -4 -7 -205 -7 -446 l0 -439 23 3 22 3 0 440 c0 389
-2 440 -15 443 -9 1 -19 0 -23 -4z"/>
<path d="M9527 5584 c-4 -4 -7 -205 -7 -446 l0 -439 93 3 92 3 0 440 0 440
-85 3 c-47 1 -89 0 -93 -4z"/>
<path d="M9757 5584 c-4 -4 -7 -205 -7 -446 l0 -439 23 3 22 3 0 440 c0 389
-2 440 -15 443 -9 1 -19 0 -23 -4z"/>
<path d="M9887 5584 c-4 -4 -7 -205 -7 -446 l0 -439 23 3 22 3 0 440 c0 389
-2 440 -15 443 -9 1 -19 0 -23 -4z"/>
<path d="M10067 5584 c-4 -4 -7 -205 -7 -446 l0 -439 93 3 92 3 0 440 0 440
-85 3 c-47 1 -89 0 -93 -4z"/>
<path d="M10297 5584 c-4 -4 -7 -205 -7 -446 l0 -439 23 3 22 3 0 440 c0 389
-2 440 -15 443 -9 1 -19 0 -23 -4z"/>
<path d="M4767 2044 c-4 -4 -7 -153 -7 -331 l0 -324 53 3 52 3 0 325 0 325
-45 3 c-25 2 -49 0 -53 -4z"/>
<path d="M4897 2044 c-4 -4 -7 -153 -7 -331 l0 -324 53 3 52 3 0 325 0 325
-45 3 c-25 2 -49 0 -53 -4z"/>
<path d="M5027 2044 c-4 -4 -7 -153 -7 -331 l0 -324 38 3 37 3 0 325 0 325
-30 3 c-17 2 -34 0 -38 -4z"/>
<path d="M5127 2044 c-4 -4 -7 -153 -7 -331 l0 -324 23 3 22 3 0 325 c0 285
-2 325 -15 328 -9 1 -19 0 -23 -4z"/>
<path d="M5267 2044 c-4 -4 -7 -153 -7 -331 l0 -324 68 3 67 3 0 325 0 325
-60 3 c-34 2 -64 0 -68 -4z"/>
<path d="M5427 2044 c-4 -4 -7 -153 -7 -331 l0 -324 23 3 22 3 0 325 c0 285
-2 325 -15 328 -9 1 -19 0 -23 -4z"/>
<path d="M5497 2044 c-4 -4 -7 -153 -7 -331 0 -304 1 -324 18 -321 16 3 17 27
17 327 0 310 -3 349 -28 325z"/>
<path d="M5597 2044 c-4 -4 -7 -153 -7 -331 0 -304 1 -324 18 -321 16 3 17 27
17 327 0 310 -3 349 -28 325z"/>
<path d="M5697 2044 c-4 -4 -7 -153 -7 -331 l0 -324 68 3 67 3 0 325 0 325
-60 3 c-34 2 -64 0 -68 -4z"/>
<path d="M5867 2044 c-4 -4 -7 -153 -7 -331 0 -304 1 -324 18 -321 16 3 17 27
17 327 0 310 -3 349 -28 325z"/>
<path d="M5967 2044 c-4 -4 -7 -153 -7 -331 l0 -324 68 3 67 3 0 325 0 325
-60 3 c-34 2 -64 0 -68 -4z"/>
<path d="M6127 2043 c-4 -3 -7 -152 -7 -330 l0 -324 23 3 22 3 3 314 c2 223
-1 318 -9 327 -13 15 -22 17 -32 7z"/>
<path d="M6227 2043 c-4 -3 -7 -152 -7 -330 l0 -324 23 3 22 3 3 314 c2 223
-1 318 -9 327 -13 15 -22 17 -32 7z"/>
<path d="M6297 2043 c-4 -3 -7 -152 -7 -330 l0 -324 38 3 37 3 3 314 c2 223
-1 318 -9 327 -12 15 -51 19 -62 7z"/>
<path d="M6497 2044 c-4 -4 -7 -153 -7 -331 0 -304 1 -324 18 -321 16 3 17 27
17 327 0 310 -3 349 -28 325z"/>
<path d="M6597 2044 c-4 -4 -7 -153 -7 -331 0 -304 1 -324 18 -321 16 3 17 27
17 327 0 310 -3 349 -28 325z"/>
<path d="M6727 2044 c-4 -4 -7 -153 -7 -331 l0 -324 68 3 67 3 0 325 0 325
-60 3 c-34 2 -64 0 -68 -4z"/>
<path d="M6897 2044 c-4 -4 -7 -153 -7 -331 0 -304 1 -324 18 -321 16 3 17 27
17 327 0 310 -3 349 -28 325z"/>
<path d="M6957 2044 c-4 -4 -7 -153 -7 -331 l0 -324 38 3 37 3 0 325 0 325
-30 3 c-17 2 -34 0 -38 -4z"/>
<path d="M7097 2044 c-4 -4 -7 -153 -7 -331 0 -304 1 -324 18 -321 16 3 17 27
17 327 0 310 -3 349 -28 325z"/>
<path d="M7157 2044 c-4 -4 -7 -153 -7 -331 l0 -324 23 3 22 3 0 325 c0 285
-2 325 -15 328 -9 1 -19 0 -23 -4z"/>
<path d="M7327 2044 c-4 -4 -7 -153 -7 -331 0 -304 1 -324 18 -321 16 3 17 27
17 327 0 310 -3 349 -28 325z"/>
<path d="M7497 2044 c-4 -4 -7 -153 -7 -331 l0 -324 33 3 32 3 0 325 0 325
-25 3 c-14 2 -29 0 -33 -4z"/>
<path d="M7597 2044 c-4 -4 -7 -153 -7 -331 0 -304 1 -324 18 -321 16 3 17 27
17 327 0 310 -3 349 -28 325z"/>
<path d="M7697 2044 c-4 -4 -7 -153 -7 -331 0 -304 1 -324 18 -321 16 3 17 27
17 327 0 310 -3 349 -28 325z"/>
<path d="M7827 2044 c-4 -4 -7 -153 -7 -331 l0 -324 68 3 67 3 0 325 0 325
-60 3 c-34 2 -64 0 -68 -4z"/>
<path d="M7997 2044 c-4 -4 -7 -153 -7 -331 0 -304 1 -324 18 -321 16 3 17 27
17 327 0 310 -3 349 -28 325z"/>
</g>
</svg>
